<?xml version="1.0" encoding="UTF-8" standalone="no"?>
<svg
   xmlns:dc="http://purl.org/dc/elements/1.1/"
   xmlns:cc="http://creativecommons.org/ns#"
   xmlns:rdf="http://www.w3.org/1999/02/22-rdf-syntax-ns#"
   xmlns:svg="http://www.w3.org/2000/svg"
   xmlns="http://www.w3.org/2000/svg"
   xmlns:sodipodi="http://sodipodi.sourceforge.net/DTD/sodipodi-0.dtd"
   xmlns:inkscape="http://www.inkscape.org/namespaces/inkscape"
   width="1200"
   height="460"
   id="svg2"
   version="1.1"
   inkscape:version="0.91 r13725"
   sodipodi:docname="logo.svg"
   inkscape:export-filename="C:\Users\Manh-Cuong.Tran\Documents\lg.png"
   inkscape:export-xdpi="90"
   inkscape:export-ydpi="90">
  <defs
     id="defs56" />
  <sodipodi:namedview
     pagecolor="#ffffff"
     bordercolor="#666666"
     borderopacity="1"
     objecttolerance="10"
     gridtolerance="10"
     guidetolerance="10"
     inkscape:pageopacity="0"
     inkscape:pageshadow="2"
     inkscape:window-width="1581"
     inkscape:window-height="878"
     id="namedview54"
     showgrid="false"
     inkscape:zoom="0.33739571"
     inkscape:cx="462.75023"
     inkscape:cy="389.75007"
     inkscape:window-x="0"
     inkscape:window-y="0"
     inkscape:window-maximized="0"
     inkscape:current-layer="svg2" />
  <title
     id="title4">flower</title>
  <metadata
     id="metadata7">image/svg+xml<rdf:RDF>
  <cc:Work
     rdf:about="">
    <dc:format>image/svg+xml</dc:format>
    <dc:type
       rdf:resource="http://purl.org/dc/dcmitype/StillImage" />
    <dc:title>flower</dc:title>
  </cc:Work>
</rdf:RDF>
</metadata>
  <g
     id="g7"
     transform="translate(-140,-108)">
    <title
       id="title9">Layer 1</title>
    <g
       id="layer1">
      <path
         d="m 405.52609,414.05695 c -3.17563,-0.87085 -6.35302,0.10296 -9.53244,0.63382 -6.1868,1.25174 -12.21649,3.09808 -18.30566,4.7352 -6.47333,1.81662 -12.06809,5.38201 -17.73044,8.897 -4.36557,3.19848 -7.59073,7.21179 -10.58755,11.59888 -3.47806,5.71258 -5.38959,12.164 -7.14731,18.56677 -2.37366,8.005 -3.52588,16.30542 -4.88626,24.5296 -1.16663,8.46716 -2.61875,16.87573 -3.98374,25.30243 -0.84552,7.3052 -2.4115,14.46823 -4.27987,21.57052 -1.56867,5.54633 -3.44959,11.00269 -5.02369,16.55774 -1.39264,2.96442 -2.65533,6.02179 -3.966,8.94123 -0.57333,1.81805 -1.48495,3.52356 -2.22125,5.20678 1.81885,-4.47693 -0.65094,-6.17096 -5.28632,-7.52807 -0.23407,0.57873 2.4039,-1.20215 3.1167,-1.55866 3.82434,-3.47137 7.58344,-7.00073 11.04547,-10.82745 4.93076,-5.55603 10.61768,-10.38562 16.37818,-15.04724 5.30291,-4.28321 10.95263,-8.15894 16.50744,-12.08777 6.23294,-4.12369 12.40564,-8.33921 18.13492,-13.1572 7.53827,-6.60461 13.62827,-14.39203 19.62897,-22.34472 5.03796,-7.79127 8.85586,-16.18262 12.27197,-24.77747 2.95139,-7.11694 5.53882,-14.36835 8.10123,-21.63178 3.23868,-3.19162 2.54126,-6.53149 3.37152,-9.97805 0.47317,-1.96411 2.04581,-2.33066 2.81918,-0.46424 l 0,0 c 1.60248,3.86734 2.84009,7.9556 4.50318,11.95432 0.27301,9.16595 -2.37858,17.55688 -6.46869,25.72504 -4.56467,8.91095 -8.98844,17.99047 -14.86966,26.12335 -6.03061,8.87542 -13.16715,17.04718 -20.66834,24.70794 -5.75564,5.90555 -11.45645,11.91227 -18.53769,16.26041 -5.47091,3.41547 -11.01651,6.74707 -16.225,10.58435 -5.33423,4.40387 -10.47208,8.92505 -15.20831,13.96192 -4.64139,3.97741 -9.01548,8.38952 -14.70438,10.97466 -2.5488,1.44623 -5.10364,3.16974 -8.0018,3.72516 -6.47672,-1.612 -7.89447,-4.1455 -5.76972,-9.85919 0.78211,-1.33819 1.63761,-2.8631 2.49524,-4.26935 1.12638,-2.84436 2.47904,-5.72436 3.38263,-8.72143 2.52893,-4.83087 4.62848,-9.7876 6.29074,-14.98694 1.93647,-6.8053 3.85596,-13.604 5.23877,-20.54733 1.6695,-8.32087 3.04746,-16.69202 4.44632,-25.06733 1.44568,-8.45825 3.22254,-16.84063 4.8808,-25.25573 2.04648,-7.12958 3.84397,-14.31385 7.27954,-20.94263 3.46469,-5.68933 6.81095,-11.31683 12.75165,-14.77194 6.10141,-4.14353 12.43152,-7.7655 19.04096,-11.05127 6.07824,-3.05362 12.26361,-5.79492 18.75647,-7.87949 4.02301,-1.35507 8.08383,-2.56799 12.15304,-3.75631 10.84311,-3.16648 11.70303,18.94186 0.80921,15.95446 z"
         id="path2637"
         inkscape:connector-curvature="0"
         style="fill:#6b026b;fill-rule:nonzero;stroke-width:1px" />
      <path
         d="m 425.73471,406.28482 c 2.56854,0.10291 5.13107,1.04636 7.61417,1.8262 4.73492,1.22568 9.4888,2.19846 14.32135,2.96619 5.82486,1.5632 11.87735,1.82404 17.84643,2.04343 5.37082,0.17694 10.5951,-0.38602 15.85324,-1.29883 6.194,-1.06717 11.78711,-3.91992 17.4267,-6.55609 5.34961,-2.81345 9.99014,-6.44989 14.48868,-10.4245 2.55762,-2.0936 3.90405,-5.06861 5.46307,-7.66855 1.09247,-1.1084 0.48066,-2.55298 0.70032,-3.71991 -0.0241,-0.50195 -0.20135,-0.82745 -0.32117,-1.31952 -0.18762,-0.36783 0.27961,0.77704 0.41938,1.16559 0.52404,0.30905 1.17175,0.32791 1.75763,0.49185 -3.70002,-0.17172 -7.47004,0.88715 -11.09986,1.67483 -6.52698,1.80665 -13.12457,3.32218 -19.67529,5.06653 -6.41464,1.51721 -12.8244,3.01969 -19.26621,4.40827 -6.65854,2.45413 -13.2127,3.2623 -19.84524,2.77978 -6.99201,1.642 -14.1203,2.49802 -21.24024,3.34326 -2.00619,0.23816 -2.32434,-2.60141 -0.31808,-2.83938 l 0,0 c 7.01077,-0.83158 14.03015,-1.67188 20.91516,-3.28769 5.60297,-3.33496 11.89984,-5.74597 18.79379,-6.87195 6.40155,-1.62656 12.8736,-2.86276 19.34317,-4.23978 6.46918,-1.50311 12.79895,-3.33511 18.9563,-5.84423 4.04413,-1.55072 8.11032,-3.04084 12.20072,-4.41474 3.2174,-0.46896 5.24902,-1.17831 8.04242,1.14288 0.81829,1.52344 2.45031,2.81507 2.38287,4.69886 0.14392,1.61795 0.67627,3.20147 0.43567,4.89871 -0.60413,2.6619 -1.13855,5.33908 -2.323,7.82529 -2.80115,3.6737 -5.30798,7.51675 -9.46472,9.87417 -5.349,3.76572 -10.83646,7.39011 -16.80023,10.12528 -6.2078,3.3356 -12.4524,6.70096 -19.28772,8.57687 -5.96979,0.76804 -11.90812,1.13632 -17.91895,0.35156 -6.2995,-0.48281 -12.65011,-1.02081 -18.9675,-1.71884 -4.87732,-1.10345 -9.75488,-2.15021 -14.68475,-3.00494 -3.00055,-0.64136 -6.05444,-0.99231 -8.5863,-2.86484 -4.39237,-3.2485 -2.62052,-7.40451 2.83819,-7.18576 z"
         id="path2639"
         inkscape:connector-curvature="0"
         style="fill:#6b026b;fill-rule:nonzero;stroke-width:1px" />
      <path
         d="m 542.55737,375.93601 c 5.86859,0.66021 10.86609,-0.87363 16.85895,-0.71982 10.11395,1.19543 20.20246,2.4364 30.28699,3.80948 11.89996,2.49771 23.07159,7.32879 34.55847,11.17492 10.21637,4.51874 20.64356,8.53144 30.74933,13.29197 6.62176,2.34359 12.58044,6.06488 18.81653,9.22747 3.77435,1.17963 6.65088,3.78055 9.62115,6.25513 4.07666,3.86023 5.25666,7.29114 4.58594,13.02652 -3.23035,6.4162 -6.21362,5.49548 -12.70019,3.41504 -1.92377,-0.617 -1.20374,-0.32013 -1.73652,-2.26892 l 0,0 c -0.31921,-1.1676 -2.04107,-10.29569 -4.00274,-5.43369 0.077,0.72409 1.20294,7.83445 0.67346,4.2042 -1.82935,-1.84943 -3.5423,-3.90781 -5.49066,-5.67841 -4.93274,-4.22491 -10.14167,-8.05246 -15.34943,-11.94214 -9.44958,-5.34891 -18.97681,-10.51523 -29.17663,-14.35077 -10.35724,-5.12854 -21.27759,-8.98248 -32.49561,-11.76474 -9.42694,-2.80594 -18.85626,-3.94854 -28.72833,-3.40494 -5.69983,-0.20632 -10.51142,-2.19818 -16.03974,-0.90246 -5.47357,1.2829 -6.01757,-8.56735 -0.43097,-7.93884 z"
         id="path2647"
         inkscape:connector-curvature="0"
         style="fill:#6b026b;fill-rule:nonzero;stroke-width:1px" />
      <path
         d="m 429.94223,380.30658 c 1.31271,-2.29999 3.23462,-4.21008 4.70242,-6.49112 1.75022,-2.44409 2.85273,-5.21323 3.96579,-7.97708 0.88221,-2.64185 1.47574,-5.35147 2.15949,-8.0567 0.63663,-2.84122 0.33569,-5.67279 0.0397,-8.53006 -0.76922,-3.87531 -2.28039,-7.53342 -3.58578,-11.24866 -2.23947,-4.72555 -4.15088,-9.5603 -6.78809,-14.09222 -2.40796,-5.06217 -6.13782,-9.33283 -9.69415,-13.61969 -3.71805,-4.47281 -8.49448,-7.83155 -12.72373,-11.74979 -3.93753,-3.36023 -7.97632,-6.58679 -12.18026,-9.60388 -2.68586,-2.05502 -5.64127,-3.71008 -8.46109,-5.55386 -1.58667,-0.71131 -2.95432,-1.73917 -4.44535,-2.61561 -0.75586,-0.18115 -1.49282,-0.33602 -2.24307,-0.50494 -0.4151,-1.98547 -0.94827,-1.09369 -2.38425,-1.47122 -1.39651,0.93863 -2.44302,2.24402 -3.41296,3.60074 -1.42209,2.46231 -2.47501,5.09884 -3.51792,7.72616 -1.34201,3.28263 -1.78625,6.82367 -2.20602,10.32349 -0.30533,4.21081 -0.46039,8.48544 -0.34476,12.71234 0.26969,5.26123 1.11496,10.49219 2.11588,15.66351 1.29144,5.58591 3.11603,11.01407 4.82397,16.47986 2.21134,5.31668 4.43518,10.58685 7.13999,15.67749 2.87955,4.57904 5.28885,9.40888 8.59073,13.71384 3.57116,4.67666 7.70788,9.09414 12.30163,12.77951 3.28589,2.44879 5.61786,5.63647 9.17951,7.6799 0.87619,0.50271 0.16452,1.74216 -0.71134,1.23889 l 0,0 c -3.62533,-2.0831 -7.81701,-3.02631 -10.91662,-5.99191 -4.73767,-4.12302 -9.66785,-8.02008 -13.54468,-13.03058 -3.18271,-4.62967 -6.29169,-9.36987 -8.47879,-14.56671 -2.59226,-5.30878 -5.2337,-10.67002 -6.95319,-16.33072 -2.07034,-5.50052 -3.44482,-11.23166 -4.47149,-17.01352 -1.20319,-5.35715 -2.31488,-10.70184 -2.51975,-16.21011 -0.10919,-4.43198 -0.17386,-8.8035 0.52454,-13.20533 0.58892,-3.73349 1.12216,-7.43777 2.25891,-11.06353 1.00677,-2.86267 2.01871,-5.73386 3.52756,-8.38272 1.03005,-2.14072 1.80807,-4.29197 3.78714,-5.83844 1.71838,-1.66849 3.40701,-3.27491 5.39819,-4.59848 2.12933,0.0425 4.16751,0.004 6.11304,1.06088 2.29757,0.85983 4.41214,1.83343 6.22119,3.53875 2.96862,2.11857 5.7337,4.47767 8.50622,6.85258 3.98484,3.54043 7.93189,7.11523 11.80542,10.77844 4.61789,3.98645 8.73236,8.55395 12.90164,13.00924 4.07508,4.56321 7.60529,9.51343 11.03763,14.56546 2.63059,4.82877 5.39258,9.64438 7.35242,14.78998 2.07608,4.11572 3.88702,8.38559 4.93961,12.88632 0.70935,4.00217 1.1571,7.93525 0.21646,11.97681 -0.66077,3.49585 -1.4477,6.89215 -3.22861,10.02539 -1.72516,3.04672 -3.57599,6.03598 -5.85239,8.73618 -1.75387,2.05029 -3.17053,4.52457 -5.13223,6.26022 -3.83814,3.39588 -8.35284,0.12174 -5.81253,-4.3291 z"
         id="path2679"
         inkscape:connector-curvature="0"
         style="fill:#6b026b;fill-rule:nonzero;stroke-width:1px" />
      <path
         d="m 479.34427,379.28479 c 2.13699,-0.10629 4.2052,-0.87906 6.28488,-1.60925 5.64935,-2.53583 9.70303,-7.40912 13.53702,-12.09751 5.83133,-7.98724 9.84726,-17.01156 13.49496,-26.1485 3.6366,-9.37561 6.4065,-19.04733 8.98035,-28.7575 2.04828,-7.9202 3.48169,-15.96927 4.75263,-24.04331 0.99231,-6.33862 1.46478,-12.75485 1.30004,-19.16775 10e-4,-4.80478 -0.80511,-9.51026 -1.59661,-14.22608 -0.76716,-3.59793 -1.85016,-7.12448 -2.98151,-10.61053 -0.43451,-2.10382 -1.60376,-3.73657 -2.83246,-5.40885 -0.36548,-0.6156 -0.95477,-1.06704 -1.43219,-1.60058 2.0827,-1.40064 -2.63324,0.47082 -3.23761,0.75842 -4.38437,3.05789 -7.83554,7.09647 -11.05734,11.32282 -4.90689,6.96344 -8.54077,14.64352 -12.23663,22.28424 -4.73307,9.64773 -8.88923,19.55185 -12.68934,29.59939 -4.04223,10.92252 -7.45242,22.06791 -10.35495,33.34342 -2.62005,10.72314 -4.64486,21.59787 -5.71078,32.58731 -0.90833,4.48895 -0.6799,9.02371 -0.4502,13.55536 0.0512,1.00888 -1.37606,1.0809 -1.42675,0.072 l 0,0 c -0.23185,-4.61435 -0.33057,-9.22626 -0.36606,-13.84683 1.09765,-11.12629 3.01288,-22.11179 6.37756,-32.80374 3.31439,-11.20539 6.43167,-22.4805 10.595,-33.41294 3.81626,-10.08905 7.76178,-20.14154 12.69168,-29.74917 3.8234,-7.66639 7.48221,-15.41431 11.35065,-23.05204 2.72543,-5.07714 5.73709,-9.97567 9.81195,-14.09329 2.91693,-3.24341 5.72211,-6.62658 10.53314,-5.82315 2.60083,1.32065 4.62744,2.70908 6.30866,5.20294 1.37189,2.72602 2.55688,5.50211 3.28308,8.49005 0.82849,3.92264 1.62225,7.8552 2.21112,11.82416 0.70966,5.19214 1.14392,10.42545 0.89209,15.67377 -0.31024,6.82614 -0.86456,13.63989 -2.30035,20.33823 -1.77777,8.15326 -4.14942,16.15701 -6.56775,24.14026 -2.85779,9.81076 -5.85083,19.56033 -9.52307,29.10568 -3.7038,9.5401 -7.6792,19.02966 -12.83719,27.88675 -3.74661,6.37826 -7.94998,12.28219 -14.11801,16.55478 -2.68408,1.72247 -5.51728,3.71777 -8.61139,4.27227 -7.49103,1.34247 -9.6756,-10.18277 -2.07462,-10.56085 z"
         id="path2687"
         inkscape:connector-curvature="0"
         style="fill:#6b026b;fill-rule:nonzero;stroke-width:1px" />
      <path
         d="m 508.97385,374.27457 c 2.72955,-1.19281 5.28128,-3.08869 7.69516,-4.87839 5.74102,-4.59524 10.84845,-9.91705 15.84942,-15.29031 5.29968,-5.97852 10.04321,-12.40012 14.46607,-19.04407 3.96057,-6.29941 7.88403,-12.59558 11.56964,-19.06012 3.41131,-5.72693 6.68798,-11.4455 8.77081,-17.83466 0.29394,-1.00644 0.58789,-2.01291 0.88177,-3.01934 0.28321,-0.96967 1.65461,-0.56897 1.37128,0.4006 l 0,0 c -0.29828,1.02057 -0.59662,2.04114 -0.8949,3.06171 -2.1004,6.43686 -3.86413,13.09124 -6.92028,19.12289 -3.4325,6.72214 -7.232,13.34134 -11.70313,19.42792 -4.66321,6.6662 -9.17602,13.46582 -14.53418,19.60702 -4.8233,5.7229 -10.06531,11.06839 -14.9187,16.76361 -2.31226,2.78495 -4.49957,5.69431 -7.14899,8.17646 -4.47958,4.19683 -10.10876,-4.97531 -4.48397,-7.43332 z"
         id="path2689"
         inkscape:connector-curvature="0"
         style="fill:#6b026b;fill-rule:nonzero;stroke-width:1px" />
      <path
         d="m 576.27673,246.60303 c -0.3222,-1.33628 0.396,-3.34381 0.78449,-4.89835 0.59167,-2.5358 0.63409,-5.10413 0.49896,-7.68506 0.16333,-2.11642 -0.21027,-4.21078 -0.4469,-6.29999 0.0974,-0.70108 -0.55115,-1.9494 -0.62549,-2.21261 1.84558,1.14816 0.019,-0.0987 -0.17322,0.89865 -3.74578,2.87341 -6.26733,6.95456 -8.67059,10.94482 -4.52875,7.40125 -9.3659,14.6062 -14.18896,21.8169 -5.34473,7.86825 -10.78998,15.66604 -16.04468,23.59524 -5.25018,7.8855 -10.20007,15.96298 -14.80231,24.24237 -0.49084,0.88291 -1.73944,0.18875 -1.24859,-0.69412 l 0,0 c 4.62085,-8.31146 9.58905,-16.42123 14.86016,-24.33743 5.25586,-7.93079 10.70179,-15.73059 16.04798,-23.60031 4.81048,-7.1919 9.63531,-14.37796 14.15259,-21.75971 2.58142,-4.28592 4.58862,-8.89032 7.40753,-13.02545 2.21423,-2.30438 3.87909,-3.36801 6.72235,-1.25989 0.87347,1.62061 1.75152,3.0037 1.54474,5.04834 -0.0187,2.27426 -0.12622,4.54367 -0.12512,6.81903 -0.39997,2.6969 -0.68976,5.38755 -0.89216,8.10498 -0.0958,1.75614 0.0518,3.97101 -0.80065,5.31104 -1.56562,2.46124 -3.31629,1.82727 -4.00013,-1.00845 z"
         id="path2691"
         inkscape:connector-curvature="0"
         style="fill:#6b026b;fill-rule:nonzero;stroke-width:1px" />
      <path
         d="m 545.16699,353.32986 c 1.69446,-3.7759 4.79859,-6.38922 7.55164,-9.35705 6.42395,-6.8169 11.14844,-14.93982 16.86883,-22.31983 7.40387,-8.88427 14.43586,-18.05145 21.14508,-27.46789 7.10328,-10.42932 14.64765,-20.72733 20.11103,-32.13214 4.3659,-9.02011 7.45727,-18.50714 10.0567,-28.15463 2.35699,-7.68131 4.07056,-15.53592 5.89368,-23.35618 1.02362,-5.83935 1.82714,-11.6954 2.09314,-17.61715 0.51989,-3.13797 -0.41577,-6.05725 -1.19129,-8.94107 -0.42004,-0.99588 -1.36944,-1.32383 -2.13885,-1.92548 -0.10022,-0.33893 -1.39301,0.29736 -1.99896,0.4267 -6.74164,2.24359 -11.65449,6.10562 -16.15235,11.5036 -4.20239,5.57654 -2.11224,2.66488 -6.24811,8.75107 -0.56768,0.83548 -1.74945,0.0322 -1.18139,-0.80313 l 0,0 c 4.19006,-6.16196 2.07184,-3.21314 6.33209,-8.86252 4.75549,-5.70481 8.19452,-12.2544 13.21356,-17.66007 3.9679,-2.88141 7.84021,-3.83426 12.21576,-1.22737 2.27399,2.22194 4.18677,4.48522 4.74652,7.75514 0.22809,4.06626 0.0245,7.91309 -0.99798,11.89414 -1.35871,5.94589 -2.90577,11.83844 -4.71338,17.67236 -1.98365,7.85593 -4.28791,15.6275 -6.27405,23.48123 -3.23828,9.60984 -7.13001,19.01191 -11.9859,27.92572 -6.18604,11.14408 -11.59125,22.73673 -18.76087,33.33258 -6.37945,9.73893 -13.29144,19.07767 -20.35479,28.32868 -5.64753,7.43368 -11.93354,14.40405 -16.73932,22.44473 -2.22821,3.46771 -4.10236,7.10278 -7.4848,9.61978 -2.94831,2.19397 -5.51056,0.0417 -4.00599,-3.31122 z"
         id="path2693"
         inkscape:connector-curvature="0"
         style="fill:#6b026b;fill-rule:nonzero;stroke-width:1px" />
      <path
         d="m 402.59369,401.42166 c -3.28549,-1.06515 -6.5658,-2.08929 -9.89746,-3.02472 -8.90036,-2.63595 -17.56885,-5.91641 -26.18726,-9.36157 -12.24921,-3.88693 -23.65753,-9.56198 -34.37668,-16.58792 -11.33899,-7.80942 -20.57934,-18.00321 -29.26855,-28.56644 -7.12778,-8.7319 -13.34458,-18.13064 -19.35733,-27.64639 -3.32077,-5.59076 -5.54486,-11.69019 -8.03848,-17.66361 -1.26328,-2.63488 -2.35093,-5.3511 -3.52521,-8.02807 -0.65427,-1.24799 -1.30741,-2.4437 -2.01639,-3.66172 -0.79758,-4.03576 1.58594,-5.26413 5.22592,-5.15524 3.48175,1.37705 6.71677,3.2829 10.26261,4.48929 6.56195,2.97098 13.49377,5.05045 20.33184,7.28433 9.66712,4.073 18.81672,9.3024 27.50782,15.16104 8.86087,5.28083 17.00531,11.50116 24.68799,18.35514 3.78848,4.16888 7.05462,8.70285 10.76959,12.95745 0.6644,0.76093 -0.41187,1.70053 -1.07614,0.93952 l 0,0 c -3.6868,-4.2237 -7.74784,-7.6987 -12.24292,-11.04453 -7.51786,-6.73202 -15.44394,-13.0202 -23.59659,-18.9642 -8.693,-5.44186 -17.25028,-11.26547 -27.03888,-14.61127 -6.75141,-2.58432 -13.79254,-4.1745 -20.84873,-5.71097 -3.18219,-1.112 -6.50927,-2.00549 -9.8814,-2.22781 0.96893,-0.70258 3.4335,-1.3801 2.6596,-3.69226 0.33783,1.01544 0.61655,2.5137 1.11392,3.62924 0.86289,2.93433 1.61622,5.92032 1.85355,8.98792 1.24429,6.15612 3.4469,12.04345 6.06168,17.7536 4.68789,10.17407 11.21487,19.25488 18.25085,27.94107 8.59644,10.45303 17.73303,20.54623 28.94867,28.2793 10.59259,6.94964 21.87598,12.67663 34.06906,16.29116 8.82169,2.12848 17.75787,4.22455 26.83502,4.79529 2.94144,0.27429 6.01984,0.8505 8.92569,0.25052 6.11698,-1.26303 5.78974,10.75812 -0.15179,8.83185 z"
         id="path2699"
         inkscape:connector-curvature="0"
         style="fill:#6b026b;fill-rule:nonzero;stroke-width:1px" />
      <path
         d="m 394.54831,400.93414 c -2.28308,1.05097 -4.82672,1.38867 -7.32883,1.68747 -6.1459,0.56568 -12.29413,1.09241 -18.47253,1.14414 -10.18106,0.0107 -20.36279,-0.19867 -30.54645,-0.15149 -12.9086,0.17804 -25.74478,-0.78336 -38.6171,-1.58219 -14.31747,-1.02676 -28.48846,-3.08303 -42.52182,-6.06732 -14.06898,-2.9656 -27.72674,-7.35141 -41.32287,-11.953 -11.24951,-3.71546 -22.1024,-8.43121 -32.80115,-13.48309 -6.90314,-3.55481 -13.99187,-6.83509 -20.7159,-10.73725 -3.82423,-1.96997 -7.34095,-4.52954 -10.79794,-7.07742 -2.53749,-1.89224 -4.35315,-4.24915 -5.89108,-6.95267 -1.17304,-2.13601 -1.66608,-4.48269 -2.20662,-6.81601 -0.42253,-1.57141 -0.41676,-3.14013 -0.36395,-4.74252 0.098,-2.57031 1.44165,-4.04788 3.03344,-5.87592 2.63773,-1.3497 5.30878,-0.95221 8.11634,-0.77063 4.14164,-0.19287 8.2882,0.0877 12.43493,0.0905 6.55123,0.45532 13.09825,0.79013 19.62369,1.55496 7.6767,0.88803 15.33299,1.9252 23.00809,2.83151 8.01072,0.79492 15.74251,3.05246 23.45315,5.24628 8.13033,2.50189 16.25663,5.0271 24.43241,7.37997 7.94473,2.25174 15.23025,6.05265 22.89276,9.04013 0.94113,0.36695 0.42203,1.69803 -0.51907,1.33097 l 0,0 c -7.67066,-2.99195 -15.63117,-4.0683 -23.5528,-6.28626 -8.17029,-2.36551 -16.33119,-4.71081 -24.49301,-7.10022 -7.51816,-2.1318 -15.1429,-3.77121 -22.85962,-5.01922 -7.56354,-1.23951 -15.16898,-1.93628 -22.81439,-2.4524 -6.32785,-0.40713 -12.65701,-1.00018 -18.99236,-0.37051 -3.99086,0.24182 -7.89196,0.97577 -11.82867,1.62488 -0.34027,0.10208 -4.72624,1.49817 -2.41042,1.07629 0.24392,-0.39966 1.29947,-1.58023 1.1214,-1.80179 0.0268,0.22412 0.34644,1.64319 0.278,2.3288 0.22658,1.17407 0.3449,2.35593 1.01969,3.3768 0.99528,1.35828 1.92033,2.73908 3.29072,3.76422 3.08621,2.48859 6.28919,4.84693 9.42716,7.28177 6.1112,4.42477 12.12272,8.95087 18.69719,12.68707 9.94795,5.88178 20.16696,11.36063 30.91371,15.65293 13.24948,4.91589 26.87628,8.86807 40.71451,11.75262 13.85632,2.6149 27.86822,4.56714 41.95028,5.39203 12.70414,0.78656 25.44919,0.5957 38.15992,-10e-4 10.07583,-0.38062 20.15042,-1.03083 30.17926,-2.04309 6.00201,-0.64972 12.0141,-1.06351 18.01059,-1.73691 2.45916,-0.19339 4.99246,-0.46521 7.34134,0.34674 5.00747,1.73096 5.77081,5.21588 0.958,7.4313 z"
         id="path2725"
         inkscape:connector-curvature="0"
         style="fill:#6b026b;fill-rule:nonzero;stroke-width:1px" />
      <path
         d="m 425.8241,297.24704 c 0.99084,-2.77371 2.78888,-5.11191 4.71688,-7.31042 3.35376,-4.91184 6.72147,-9.82608 10.23481,-14.62781 3.49102,-5.10471 7.13241,-10.08094 11.23278,-14.71375 3.28193,-3.77395 7.24106,-6.27191 12.04877,-7.5184 5.08057,-0.8942 9.36783,1.34824 13.22904,4.40686 4.8399,3.00357 6.75268,8.01065 9.72052,12.47635 0.40423,0.69028 0.80844,1.38058 1.21267,2.07089 0.51044,0.87171 -0.72354,1.59348 -1.23312,0.72128 l 0,0 c -0.38989,-0.66732 -0.77979,-1.33465 -1.16968,-2.00198 -2.69256,-4.05923 -7.13531,-6.86224 -10.68664,-10.16165 -3.23108,-1.90839 -6.45936,-3.67893 -10.31827,-3.5542 -4.15091,0.81403 -7.78345,2.29608 -10.83863,5.43536 -4.34985,4.21552 -8.17834,8.92786 -11.55929,13.95502 -3.14264,4.96869 -6.34244,9.8981 -9.03855,15.13138 -0.70654,2.23517 -1.69149,4.38995 -1.96133,6.70737 -0.46469,3.9905 -6.94147,2.76705 -5.58997,-1.0163 z"
         id="path2731"
         inkscape:connector-curvature="0"
         style="fill:#6b026b;fill-rule:nonzero;stroke-width:1px" />
      <path
         d="m 438.63217,276.62122 c -0.60257,-0.93442 -1.69552,-1.65445 -2.57208,-2.40973 -1.40152,-1.57209 -3.19946,-2.68055 -4.89002,-3.8942 -1.80337,-1.03445 -3.81042,-1.55026 -5.80835,-2.05533 -2.25869,-0.42987 -4.53503,-0.43756 -6.8172,-0.488 -2.16241,0.0515 -4.21048,0.68155 -6.26654,1.26638 -1.87857,0.66773 -3.35376,2.00251 -4.91366,3.18445 -1.70044,1.53156 -3.04401,3.38263 -4.32541,5.25845 -1.21271,1.74076 -2.01309,3.69468 -2.94171,5.59986 -0.14536,0.29391 -0.29071,0.58786 -0.43607,0.8818 -0.44778,0.90549 -1.55707,0.52362 -1.35071,-0.46521 l 0,0 c 0.0678,-0.32507 0.13568,-0.65014 0.20353,-0.97519 0.54483,-2.23205 1.08624,-4.51709 2.28436,-6.501 1.38138,-2.07193 2.77063,-4.15216 4.52624,-5.95258 1.79434,-1.72461 3.50058,-3.39468 5.99189,-4.07547 2.33633,-0.69745 4.70687,-1.11194 7.15139,-1.25091 2.51966,-0.0472 5.03275,0.0665 7.4946,0.66519 2.37399,0.51559 4.69162,1.05264 6.72125,2.47769 1.85843,1.23199 3.72318,2.43979 5.5001,3.77823 1.11358,0.9649 2.21664,1.88437 3.12057,3.04318 1.42911,1.83209 -1.41293,3.86514 -2.67218,1.91238 z"
         id="path2737"
         inkscape:connector-curvature="0"
         style="fill:#6b026b;fill-rule:nonzero;stroke-width:1px" />
      <path
         d="m 352.07327,319.81192 c 0.096,-1.52365 -0.36929,-3.03217 -0.66449,-4.5192 -1.00778,-3.84982 -1.85116,-7.73996 -2.77847,-11.62741 -0.98373,-5.41812 -2.44202,-10.73703 -3.52136,-16.14337 -0.77787,-5.40631 -1.44342,-10.79712 -1.65378,-16.26459 -0.20853,-4.95584 0.88711,-9.8059 1.71118,-14.65606 0.60098,-3.47242 1.12061,-6.9527 1.95059,-10.37012 0.49457,-2.69568 1.9773,-4.14642 4.13343,-5.55704 3.29391,-1.22055 5.40045,0.18222 7.86352,2.2937 3.23575,3.50678 6.50025,7.00714 9.76462,10.5001 3.85739,3.97244 7.02634,8.50283 10.06076,13.11206 0.55548,0.84372 -0.63785,1.62927 -1.19324,0.78549 l 0,0 c -2.98974,-4.54209 -6.10891,-9.0087 -9.91128,-12.92215 -3.1644,-3.38638 -6.30026,-6.85468 -10.1868,-9.43469 -1.61987,-0.6547 -2.96469,-1.6362 -4.78717,-1.30127 -1.19434,1.05722 -2.44363,1.78213 -3.02335,3.44073 -1.22628,3.19708 -2.43298,6.38703 -3.13327,9.75443 -1.04455,4.69311 -1.42202,9.50476 -1.41949,14.30706 0.0715,5.33381 0.43591,10.7493 1.75928,15.92624 1.06182,5.32395 2.09857,10.7359 4.11315,15.78675 1.31562,3.72793 2.9719,7.22027 4.86695,10.67074 0.8536,1.61606 1.65252,3.24854 2.3757,4.92716 1.80649,4.19317 -6.61374,5.84814 -6.32648,1.29144 z"
         id="path2741"
         inkscape:connector-curvature="0"
         style="fill:#6b026b;fill-rule:nonzero;stroke-width:1px" />
      <path
         d="m 304.11996,291.91193 c -0.75317,-1.6008 -0.9996,-3.40689 -1.38635,-5.12308 -0.8642,-3.67447 -1.67404,-7.34006 -2.2637,-11.07474 -0.85904,-5.46014 -1.79025,-10.91412 -3.02231,-16.30377 -0.88827,-4.74301 -2.16232,-9.41721 -2.85293,-14.19339 -0.69208,-3.75592 -1.30848,-7.52228 -1.86377,-11.30069 -0.40299,-2.10117 -0.76349,-4.17493 -1.0033,-6.29678 0.0958,-3.05277 1.45508,-3.73746 4.0806,-4.66193 2.25113,0.74414 3.72039,2.61056 5.3038,4.28302 2.65427,2.77267 4.98828,5.81934 7.39807,8.80041 3.34772,3.69471 6.25165,7.6923 9.0961,11.78299 3.11249,4.52042 6.05661,9.14771 9.0419,13.75019 2.89038,4.09625 5.29175,8.45572 7.71561,12.82907 1.70718,4.28198 3.63235,8.45605 5.17849,12.80713 1.443,3.86667 2.55329,7.83935 3.76069,11.78158 0.51477,3.0922 0.97912,6.18378 1.58374,9.25867 0.19491,0.99118 -1.05726,1.32565 -1.38019,0.36853 l 0,0 c -0.99665,-2.95352 -2.09442,-5.85077 -3.31821,-8.72449 -1.10583,-3.92663 -2.3414,-7.81469 -3.49307,-11.72946 -1.40338,-4.2388 -2.53571,-8.62222 -4.88227,-12.46612 -2.05984,-4.45475 -4.56079,-8.71054 -7.0585,-12.93128 -2.84033,-4.63974 -5.81573,-9.20086 -9.04489,-13.58178 -2.91711,-3.93406 -5.81091,-7.87677 -9.0086,-11.5795 -2.50342,-2.70185 -5.07968,-5.33527 -8.11872,-7.44388 -0.45904,-0.30295 -3.12228,-2.39124 -2.72522,-1.38562 0.15363,-0.10779 2.67346,-1.68445 1.85163,-1.16837 -0.0948,1.91129 -0.30713,3.83973 -0.11185,5.75943 0.30429,3.74268 0.54489,7.47895 1.02356,11.20688 0.82159,4.70066 1.3129,9.46323 2.34277,14.13211 0.92307,5.3693 1.94306,10.75995 3.65586,15.93918 1.25821,3.4411 2.49255,6.89811 3.96154,10.25012 0.68683,1.62696 1.48627,3.23252 1.91822,4.95392 1.15371,4.59763 -4.36066,6.3508 -6.3787,2.06165 z"
         id="path2749"
         inkscape:connector-curvature="0"
         style="fill:#6b026b;fill-rule:nonzero;stroke-width:1px" />
      <path
         d="m 303.0899,292.52701 c -1.32992,-1.80032 -2.19082,-3.95581 -3.17385,-5.98654 -2.00351,-4.52002 -4.37125,-8.84482 -6.3975,-13.36356 -2.55572,-5.09088 -5.59643,-9.91809 -7.92608,-15.11902 -2.53131,-5.45248 -4.51532,-11.12216 -6.25379,-16.86862 -1.5371,-5.26242 -3.57061,-10.33109 -5.30654,-15.52286 -1.81113,-4.24045 -2.78202,-8.76166 -3.9484,-13.20187 -0.77939,-3.892 -1.20633,-7.83142 -1.82819,-11.74961 -0.25524,-2.86633 -1.06701,-5.56903 -1.25061,-8.43328 -0.28878,-2.32142 -0.49618,-4.63242 -0.68243,-6.96637 -0.25723,-1.49302 -0.23889,-3.01478 -0.34357,-4.50959 -0.0334,-2.12808 0.84937,-4.09448 1.49277,-6.05592 0.42059,-1.38605 0.81735,-2.71294 1.23038,-4.04999 0.37567,-1.83072 1.71197,-2.70384 2.98764,-3.88121 2.13681,-1.36385 4.40634,-1.09154 6.79712,-0.74254 3.16147,1.33336 5.79065,3.5206 8.46042,5.63195 3.91229,3.00914 7.51489,6.39163 11.27343,9.58422 4.34168,4.29407 8.51514,8.77894 12.57752,13.34238 4.29532,4.65747 8.0076,9.814 11.81836,14.87808 3.44214,4.83277 5.93014,10.20398 8.02716,15.7266 1.2944,2.67718 2.43207,5.4234 3.55871,8.1737 0.38294,0.93476 -0.93917,1.47626 -1.32199,0.54145 l 0,0 c -1.11599,-2.72525 -2.24307,-5.44639 -3.5256,-8.09903 -2.92081,-4.98777 -5.63345,-10.06992 -8.75995,-14.93644 -3.39233,-5.29849 -7.44748,-9.85943 -11.93567,-14.25995 -4.26648,-4.24127 -8.24942,-8.75686 -12.8341,-12.67083 -3.46668,-3.22605 -7.29007,-6.026 -11.3751,-8.42655 -2.46954,-1.14235 -4.92154,-2.42189 -7.6596,-2.77731 -0.49582,-0.17789 -0.80591,-0.50771 -1.18753,-0.42604 -0.16059,0.21379 -0.41864,0.42432 -0.54435,0.72459 -0.51968,1.22202 -1.0805,2.42073 -1.54525,3.71424 -0.3841,1.24496 -0.82367,2.40484 -0.72309,3.76578 0.006,1.5274 0.17502,3.08822 -0.0721,4.61975 -0.0369,2.23291 -0.1315,4.44885 -0.0223,6.67932 0.25201,2.82193 -0.13214,5.59186 0.12482,8.42141 0.15075,3.81247 0.52154,7.61585 1.26681,11.36133 0.85919,4.39414 1.84073,8.74796 2.95072,13.09158 1.4982,5.25946 2.6958,10.58585 4.35653,15.80249 1.85099,5.60175 3.37165,11.34733 5.98539,16.66428 2.574,5.04791 4.94473,10.1879 7.82128,15.07749 2.57679,4.13067 4.84482,8.46075 7.90448,12.25674 1.41324,1.69287 2.92536,3.33838 4.22055,5.077 2.17173,2.91531 -2.07638,5.83676 -4.23642,2.91275 z"
         id="path2751"
         inkscape:connector-curvature="0"
         style="fill:#6b026b;fill-rule:nonzero;stroke-width:1px" />
      <path
         d="m 338.38565,258.39011 c -1.0888,-2.46528 -1.64542,-5.11149 -2.31342,-7.69812 -1.43731,-4.71183 -2.89291,-9.42896 -4.68389,-14.02094 -2.19892,-5.4671 -3.55149,-11.19202 -4.68796,-16.95666 -1.01929,-5.81464 -2.06677,-11.62403 -3.11515,-17.43348 -0.86627,-4.39785 -1.43948,-8.83969 -1.95877,-13.2857 -0.27969,-3.64749 -0.57623,-7.29459 -0.74621,-10.95014 -0.27552,-2.66348 -0.35712,-5.36184 -0.34424,-8.03663 -0.12601,-2.0246 0.51092,-3.93691 0.9357,-5.88451 0.97241,-2.38371 2.07638,-3.16087 4.49023,-3.68489 3.28879,0.53093 6.08036,2.39154 8.82187,4.18479 4.12125,3.23214 8.37586,6.28041 12.43268,9.59513 4.44925,3.64399 8.12079,8.06406 11.60455,12.60621 2.26926,2.89071 4.4574,5.80822 6.48365,8.87142 0.55731,0.84253 -0.54166,1.62946 -1.16144,0.83179 l 0,0 c -2.2395,-2.88217 -4.35535,-5.84595 -6.45581,-8.83389 -3.41602,-4.45514 -7.01203,-8.7944 -11.37491,-12.36936 -3.97168,-3.24621 -7.98895,-6.57791 -12.63919,-8.81082 -2.40271,-1.13658 -4.63321,-2.7292 -7.37363,-2.61612 -0.47726,0.376 -1.89874,-0.12944 -1.59695,1.25811 -0.55756,1.65684 -1.06867,3.28541 -1.20334,5.04589 -0.27591,2.60208 -0.38944,5.22574 -0.62461,7.83721 -0.11282,3.61606 -0.25567,7.2113 0.24198,10.81103 0.44165,4.41867 1.00909,8.81714 1.87433,13.17679 1.04699,5.80191 2.09338,11.60379 3.11087,17.41098 1.11664,5.66934 2.39807,11.3346 4.67261,16.67105 1.92175,4.5687 4.26525,8.94455 6.13629,13.53769 1.08172,2.23856 2.19967,4.49167 3.19214,6.77091 1.18792,2.72821 -2.5152,4.69421 -3.71738,1.97226 z"
         id="path2755"
         inkscape:connector-curvature="0"
         style="fill:#6b026b;fill-rule:nonzero;stroke-width:1px" />
      <path
         d="m 341.28418,256.58646 c 0.3988,-2.12372 0.38013,-4.3093 0.41702,-6.46821 0.15482,-3.54241 -0.0712,-7.09954 -0.21728,-10.64715 -0.17459,-3.67142 -0.14493,-7.3461 -0.0972,-11.01971 0.10205,-2.67179 -0.23682,-5.28428 -0.63336,-7.90781 -0.21207,-2.17908 -0.30542,-4.34744 -0.48319,-6.49127 -0.38742,-1.87107 -0.001,-3.66132 0.33316,-5.48981 0.13495,-1.565 1.21927,-2.49292 2.05674,-3.67203 1.36431,-1.70608 2.80896,-1.42041 4.69372,-1.58914 3.00742,0.49326 5.4119,2.1683 7.78287,3.96277 3.05108,2.51477 5.63833,5.45001 7.8847,8.68976 2.59528,4.04168 4.75318,8.34079 6.96509,12.59829 2.13654,4.2601 4.16306,8.57505 6.17154,12.89679 1.78842,3.56211 3.09744,7.28232 4.40778,11.02478 0.15844,0.49579 0.31686,0.99158 0.47528,1.48734 0.30746,0.96222 -1.05347,1.397 -1.36081,0.43475 l 0,0 c -0.15613,-0.4888 -0.31226,-0.97757 -0.46842,-1.46637 -1.29028,-3.68768 -2.75131,-7.30871 -4.34933,-10.87845 -1.9996,-4.3027 -4.01721,-8.5986 -6.14374,-12.84021 -2.1842,-4.20422 -4.31454,-8.44961 -6.87204,-12.44391 -2.12726,-3.07922 -4.51181,-6.03195 -7.66604,-8.10934 -2.21357,-1.15665 -4.35282,-2.57812 -6.95679,-2.71707 -0.87598,0.2565 -1.81207,0.0145 -2.44135,0.83896 -0.56946,0.78665 -1.2698,1.457 -1.66751,2.35486 -0.16153,1.59857 -0.36383,3.19665 -0.39575,4.8103 0.0712,2.12195 0.22205,4.27582 0.36963,6.43683 -0.0535,2.69592 -0.13953,5.39596 -0.27381,8.09292 -0.0475,3.64756 -0.0771,7.29621 0.0964,10.94162 0.14548,3.53397 0.22488,7.09079 0.83734,10.57547 0.29153,2.07691 0.4888,4.22516 1.29764,6.16944 1.02829,2.47189 -4.25632,3.05685 -3.76224,0.4256 z"
         id="path2763"
         inkscape:connector-curvature="0"
         style="fill:#6b026b;fill-rule:nonzero;stroke-width:1px" />
      <path
         d="m 362.30765,217.11993 c 0.32141,-1.84039 0.44107,-3.72494 0.56857,-5.58929 0.007,-2.97849 0.68002,-5.85309 1.38693,-8.72586 0.61936,-3.24814 1.74573,-6.36929 2.96613,-9.43222 1.33554,-2.91318 3.4714,-4.91812 5.92676,-6.85306 2.11682,-1.64978 4.5552,-2.72778 6.9118,-3.97067 2.58115,-1.3822 5.13498,-1.44583 7.92136,-1.27024 3.69131,1.13901 6.29879,3.80295 9.03912,6.34699 3.59112,3.37613 5.29334,8.05182 6.98618,12.56244 0.35491,0.94574 -0.9841,1.44729 -1.3378,0.5011 l 0,0 c -1.61859,-4.32993 -3.92551,-8.06156 -7.28077,-11.29587 -2.44299,-1.96216 -4.88479,-3.98084 -8.02505,-4.6622 -2.15225,-0.14914 -3.91834,-0.33502 -5.90576,0.88183 -2.25357,0.9527 -4.40039,2.10337 -6.45331,3.44809 -1.96216,1.59232 -3.81851,3.2659 -4.85873,5.64405 -1.24704,2.83194 -2.41291,5.65417 -2.93845,8.73022 -0.37415,2.70127 -0.79654,5.41913 -0.75748,8.15692 0.0808,1.70111 0.06,3.48645 0.63748,5.098 1.14652,3.19931 -5.37167,3.77764 -4.78698,0.42977 z"
         id="path2765"
         inkscape:connector-curvature="0"
         style="fill:#6b026b;fill-rule:nonzero;stroke-width:1px" />
      <path
         d="m 400.77933,228.32455 c 0.30804,-1.61691 0.39514,-3.23031 0.64865,-4.85839 0.26697,-3.33429 0.69156,-6.60788 1.23074,-9.91422 0.78412,-3.77054 1.74649,-7.48895 2.67963,-11.22366 0.58389,-3.22666 1.58825,-6.34809 2.71063,-9.41556 0.81451,-2.46051 1.98175,-4.7161 3.3772,-6.88428 1.12918,-1.88568 2.84668,-3.21817 4.48782,-4.5838 1.70502,-1.66684 3.53729,-2.16241 5.81619,-2.47076 3.06674,-0.0888 5.64975,1.08185 8.29987,2.3508 3.20132,2.48456 5.81564,5.57034 8.03412,8.95202 2.93209,4.07404 4.65844,8.78818 6.8424,13.25986 2.61176,4.49637 4.35697,9.42255 6.09397,14.30393 1.41598,4.52249 2.082,9.19912 3.47476,13.72518 0.29709,0.96549 -1.0683,1.38566 -1.36539,0.42017 l 0,0 c -1.38128,-4.48889 -3.47567,-8.64111 -5.30539,-12.95877 -1.83502,-4.74008 -3.9421,-9.33823 -5.98642,-13.98673 -2.08368,-4.29278 -4.48416,-8.44677 -6.98034,-12.50958 -2.0582,-2.8421 -4.13437,-5.69137 -7.0773,-7.67605 -1.78952,-1.30341 -3.47312,-2.64542 -5.7779,-2.67038 -1.4779,0.36584 -3.05066,0.49551 -4.35672,1.46319 -1.40402,1.24503 -2.86816,2.39295 -4.05655,3.88361 -1.28411,1.98825 -2.69223,3.93225 -3.55316,6.16629 -1.17199,2.97305 -2.35763,5.92102 -3.23355,9.0007 -0.97998,3.6636 -2.04288,7.34 -2.4859,11.11645 -0.397,3.24741 -0.84796,6.49912 -0.86359,9.78119 0.10303,1.58197 0.023,3.16858 0.37723,4.72879 0.47455,2.09006 -3.43213,2.10538 -3.031,0 z"
         id="path2767"
         inkscape:connector-curvature="0"
         style="fill:#6b026b;fill-rule:nonzero;stroke-width:1px" />
      <path
         d="m 436.2251,165.40581 c 2.16809,-2.41236 3.45297,-5.47173 5.06796,-8.27324 2.41342,-4.0856 5.1601,-7.9576 7.95691,-11.78603 2.25284,-3.20897 4.77899,-6.20048 7.34137,-9.1616 1.42316,-2.05178 3.27976,-3.56504 5.21127,-5.07904 2.319,-1.31978 3.55487,-0.51339 5.73273,0.429 1.86084,1.73077 3.64487,3.55551 5.40579,5.36032 2.42246,3.54422 4.82099,7.07336 6.75852,10.9172 2.09396,4.08165 4.18899,8.11596 5.74673,12.44463 1.49136,3.68623 2.68762,7.47534 3.80939,11.28862 0.95367,2.50374 0.86163,5.21254 0.86813,7.78401 0.003,1.01016 -0.94253,1.20908 -1.39538,0.30612 l 0,0 c -1.10935,-2.21203 -2.31659,-4.54022 -2.97303,-7.04149 -1.18927,-3.71508 -2.31619,-7.44893 -3.4783,-11.16978 -1.55597,-4.148 -3.05124,-8.36498 -5.10364,-12.28903 -1.95071,-3.58238 -3.71417,-7.36385 -6.51306,-10.37722 -1.34363,-1.83252 -2.55517,-3.7042 -4.59997,-4.83448 -1.02857,-0.32637 -1.90229,-1.09189 -3.10788,-0.72936 -1.89386,1.12204 -3.77658,2.25186 -5.27631,3.9492 -2.55063,2.91303 -5.04904,5.8693 -7.27286,9.04564 -2.76672,3.78675 -5.48437,7.61621 -7.8728,11.6568 -1.63016,2.82718 -3.40768,5.63431 -4.27112,8.79968 -0.44336,1.62531 -3.16058,0.013 -2.03445,-1.23995 z"
         id="path2769"
         inkscape:connector-curvature="0"
         style="fill:#6b026b;fill-rule:nonzero;stroke-width:1px" />
      <path
         d="m 451.19089,226.69076 c 0.84524,-1.86581 2.2088,-3.41983 3.33346,-5.12881 2.43823,-3.7478 5.28147,-7.19284 7.93396,-10.78769 3.20496,-4.21686 6.90833,-8.00287 10.28464,-12.07425 2.89548,-3.52292 6.06314,-6.78967 9.34244,-9.95099 2.35788,-2.3269 4.77551,-4.58026 7.19317,-6.84665 1.49234,-1.59726 3.38788,-2.67459 5.20044,-3.80612 3.43711,-0.88962 4.50681,1.14398 5.01291,4.13724 0.98078,2.90094 1.3869,5.89868 1.71997,8.95453 0.58121,4.35629 0.79303,8.74795 0.98651,13.13483 0.11899,3.06527 0.30234,6.12759 0.45694,9.19122 0.0509,1.00888 -1.37582,1.08087 -1.42675,0.072 l 0,0 c -0.15476,-3.06668 -0.33826,-6.13199 -0.45737,-9.20032 -0.19058,-4.32278 -0.34839,-8.66556 -1.03217,-12.94418 -0.74936,-2.70169 -1.35898,-5.6246 -2.74856,-8.02777 -1.01612,0.17312 -1.57437,-0.16397 -0.33762,0.0575 -1.35974,0.74552 -2.73218,1.47254 -3.90149,2.58387 -2.60373,1.94931 -5.16608,3.92648 -7.70526,5.96014 -3.28348,2.91074 -6.56891,5.81995 -9.44595,9.14874 -3.47629,3.87497 -6.47452,8.1272 -9.6279,12.26468 -2.63071,3.39719 -4.59888,7.15195 -6.36792,11.06211 -0.84061,1.71746 -1.44635,3.53726 -2.46704,5.14413 -2.51575,3.96045 -7.88254,1.32959 -5.94641,-2.94424 z"
         id="path2771"
         inkscape:connector-curvature="0"
         style="fill:#6b026b;fill-rule:nonzero;stroke-width:1px" />
      <path
         d="m 467.46011,249.98901 c 1.14621,-1.63046 2.28989,-3.21487 3.61878,-4.70327 1.26965,-2.03162 3.08221,-3.40146 5.02029,-4.72593 0.83399,-0.56994 1.56717,0.37516 0.88571,1.12085 l 0,0 c -1.43838,1.57398 -2.89309,3.16877 -4.31381,4.78019 -0.84628,1.54815 -1.84125,3.05526 -1.97183,4.85055 -0.1795,2.46741 -4.6619,0.70145 -3.23914,-1.32239 z"
         id="path2773"
         inkscape:connector-curvature="0"
         style="fill:#6b026b;fill-rule:nonzero;stroke-width:1px" />
      <path
         d="m 490.94,247.80728 c -0.43082,-1.02795 -1.20218,-1.81927 -1.83514,-2.71924 -1.67581,-1.48391 -3.69055,-2.27389 -5.68714,-3.19162 -0.47073,0.0251 -0.94149,0.0502 -1.41223,0.0753 -1.00873,0.0538 -1.07895,-1.38147 -0.0698,-1.42688 l 0,0 c 0.53381,-0.024 1.06766,-0.048 1.6015,-0.0721 2.94064,-0.2352 5.46902,-0.15265 7.97165,1.85251 1.31918,1.08874 2.59448,2.08923 3.18728,3.77716 0.96653,2.75195 -2.62878,4.39483 -3.75613,1.70477 z"
         id="path2777"
         inkscape:connector-curvature="0"
         style="fill:#6b026b;fill-rule:nonzero;stroke-width:1px" />
      <path
         d="m 500.034,223.05658 c -1.73902,1.64371 -2.40613,4.21121 -3.03394,6.51218 -1.4794,6.12396 -1.82196,12.52017 -2.20883,18.80133 -0.20905,3.32025 -0.0979,6.64273 0.0275,9.96243 0.0381,1.00943 -1.38971,1.06317 -1.42759,0.0537 l 0,0 c -0.12631,-3.36691 -0.23815,-6.73666 -0.0258,-10.10406 0.39337,-6.37604 1.19387,-12.70856 1.69076,-19.06836 0.30243,-3.07224 0.26132,-6.26001 1.33084,-9.18836 1.15033,-3.14975 6.08399,0.72773 3.64704,3.0311 z"
         id="path2783"
         inkscape:connector-curvature="0"
         style="fill:#6b026b;fill-rule:nonzero;stroke-width:1px" />
      <path
         d="m 504.99115,222.20187 c -0.32034,1.20481 -0.071,2.39237 -0.0253,3.59958 0.0382,1.00943 -1.07123,1.18882 -1.40884,0.23673 l 0,0 c -0.36487,-1.02893 -0.36353,-2.15982 -1.33786,-2.88364 -1.66376,-1.23602 3.30456,-2.95572 2.77203,-0.95266 z"
         id="path2785"
         inkscape:connector-curvature="0"
         style="fill:#6b026b;fill-rule:nonzero;stroke-width:1px" />
      <path
         d="m 510.07596,228.82297 c -0.14984,-2.17267 -0.35709,-4.1507 -0.1666,-6.32852 0.2341,-3.03546 1.08811,-6.02894 1.88034,-8.97034 0.48807,-2.6077 1.55076,-4.96741 2.76615,-7.29407 1.13556,-1.93823 2.54132,-3.30298 4.38586,-4.46524 4.15473,-0.46954 4.78412,2.27506 6.31171,5.55087 1.66766,4.94104 3.79626,9.694 5.48352,14.62931 0.34601,1.08294 0.69202,2.16589 1.03809,3.24881 0.30743,0.96222 -1.05347,1.39703 -1.36078,0.43475 l 0,0 c -0.34308,-1.07388 -0.6861,-2.14777 -1.02912,-3.22165 -1.6297,-4.77182 -3.15692,-9.71078 -6.66089,-13.47845 -0.67053,-0.64737 -3.80273,-2.33481 -1.7948,-2.23688 -0.65069,0.52408 -1.91534,0.97339 -2.30609,2.08514 -1.143,1.86679 -2.33111,3.71775 -2.92901,5.8563 -0.72388,2.76797 -1.41297,5.52545 -1.93457,8.32293 -0.23871,1.99338 -0.92621,3.87207 -0.91394,5.86704 0.012,1.95856 -2.63514,1.95395 -2.76987,0 z"
         id="path2787"
         inkscape:connector-curvature="0"
         style="fill:#6b026b;fill-rule:nonzero;stroke-width:1px" />
      <path
         d="m 497.36893,165.69514 c 1.8497,-2.79312 4.02829,-5.4506 5.83526,-8.36895 3.05554,-4.90631 5.99826,-9.88149 8.9285,-14.86324 2.0838,-3.60351 4.42078,-7.04675 6.7254,-10.5095 1.62946,-2.60201 3.71735,-4.18717 6.43622,-5.40282 3.46161,-0.28726 5.34143,1.70068 7.41583,4.1795 2.7204,2.92684 3.86072,6.66996 4.90534,10.44818 1.53686,5.3023 2.79993,10.70398 3.55084,16.17443 0.98499,5.6414 1.06171,11.36001 1.31317,17.06128 0.16272,2.39293 -0.15906,4.76127 -0.23547,7.15046 -0.0323,1.00965 -1.46021,0.9639 -1.42786,-0.0457 l 0,0 c 0.0761,-2.37241 -0.11053,-4.71674 0.0165,-7.08895 0.14301,-5.63105 -0.32251,-11.2733 -1.12909,-16.84552 -0.96155,-5.35028 -1.72674,-10.75055 -3.45184,-15.93136 -1.43115,-3.35182 -3.40143,-6.26566 -5.51428,-9.2134 -1.48291,-1.32058 -2.67121,-2.86726 -4.76557,-3.05818 -2.31299,0.72888 -4.16394,1.51491 -5.70013,3.65843 -2.61542,3.16985 -4.89508,6.55275 -6.90772,10.14746 -2.93573,4.99108 -5.88397,9.97551 -8.94522,14.89101 -1.76797,2.85536 -3.2037,5.87878 -4.61096,8.82448 -0.82953,1.7364 -3.50143,0.39688 -2.4389,-1.20757 z"
         id="path2791"
         inkscape:connector-curvature="0"
         style="fill:#6b026b;fill-rule:nonzero;stroke-width:1px" />
      <path
         d="m 537.87195,184.74823 c 2.34192,-1.496 4.09222,-3.72299 5.96094,-5.74738 1.84826,-2.19738 3.42682,-4.56823 5.16809,-6.84472 1.14038,-1.61267 2.68335,-2.87192 4.17431,-4.15273 2.80176,-0.82693 4.30408,-0.19017 6.31043,1.63094 1.81073,2.86616 2.64435,5.96429 3.3302,9.24341 0.5758,5.59231 0.88623,11.20706 0.75006,16.82922 -0.13324,6.72223 -1.06171,13.39517 -1.90161,20.05783 -1.51483,7.39417 -3.45417,14.66416 -5.95886,21.78705 -2.86969,6.74322 -4.38086,14.00946 -7.85346,20.47903 -2.27386,2.56833 -3.8811,5.19217 -5.07373,8.37436 -0.35449,0.94589 -1.6922,0.44452 -1.33771,-0.50137 l 0,0 c 1.19098,-3.17773 1.69873,-6.19675 1.64026,-9.62369 1.53876,-7.12594 5.22968,-13.53522 7.18958,-20.55527 2.18048,-6.8045 4.70923,-13.59484 5.11047,-20.80044 0.90418,-6.37943 1.31744,-12.80051 1.43732,-19.24146 -0.0961,-5.15402 -0.17798,-10.32818 -1.5149,-15.34692 -0.53241,-2.39749 -0.98736,-4.81824 -1.29925,-7.23811 0.18701,-0.23317 0.99774,-0.82306 0.96973,-1.20925 -1.23627,0.57698 -2.78113,1.12436 -3.88129,2.30429 -2.16962,1.79151 -4.33533,3.60764 -6.18652,5.75083 -1.69123,2.02704 -3.76587,3.92459 -4.40168,6.55078 -0.52557,2.17102 -4.51477,-0.54389 -2.63238,-1.7464 z"
         id="path2793"
         inkscape:connector-curvature="0"
         style="fill:#6b026b;fill-rule:nonzero;stroke-width:1px" />
      <path
         d="m 378.82284,179.90219 c 1.07682,-2.96487 2.71146,-5.76183 4.02176,-8.67143 2.77753,-6.12398 5.1261,-12.44892 7.54053,-18.72901 2.11993,-5.51052 3.91431,-11.14054 6.12335,-16.61808 1.15113,-3.69731 2.51419,-7.31066 4.10916,-10.82723 1.25598,-2.79841 3.10511,-4.76893 5.51334,-6.52112 3.9209,-2.02755 6.54758,-0.1296 9.6839,2.27997 3.14187,3.35559 6.25152,6.79714 8.68048,10.70932 2.90491,4.46257 5.62921,9.0822 8.186,13.76024 2.22211,4.24536 4.04258,8.68279 5.92341,13.08528 0.39685,0.92893 -0.91971,1.48348 -1.31656,0.55454 l 0,0 c -1.86188,-4.35814 -3.66333,-8.7511 -5.86054,-12.95493 -2.51065,-4.59805 -5.38013,-8.84602 -9.31161,-12.37543 -3.26581,-2.69658 -6.03186,-6.01149 -9.64838,-8.2734 -1.01797,-0.51622 -2.04559,-1.11721 -3.07169,-1.55858 -1.30151,1.24338 -2.62554,2.34585 -3.39758,4.05031 -1.77923,3.23249 -3.57645,6.49305 -5.09823,9.87664 -2.27536,5.42862 -4.79368,10.75586 -6.95603,16.22992 -2.50708,6.08078 -5.25033,12.23323 -6.29175,18.75811 -0.46688,2.89419 -0.78466,5.79892 -0.97015,8.69552 -0.36133,5.64234 -9.78949,3.8436 -7.85941,-1.47064 z"
         id="path2805"
         inkscape:connector-curvature="0"
         style="fill:#6b026b;fill-rule:nonzero;stroke-width:1px" />
      <path
         d="m 332.63245,161.37193 c 1.73596,-1.43155 3.13348,-3.19275 4.57797,-4.87985 1.90396,-2.97978 3.6929,-6.03251 5.54831,-9.04355 0.513,-0.89995 1.12561,-1.73672 1.68805,-2.60458 0.5494,-0.84769 1.73687,-0.0535 1.1875,0.79417 l 0,0 c -0.55466,0.85576 -1.16004,1.68006 -1.66456,2.56829 -1.84701,2.99733 -3.72811,5.98092 -5.39581,9.08264 -0.74927,2.05266 -1.61093,4.10612 -1.98443,6.28703 -0.54065,3.15689 -6.42811,-0.16647 -3.95703,-2.20415 z"
         id="path2811"
         inkscape:connector-curvature="0"
         style="fill:#6b026b;fill-rule:nonzero;stroke-width:1px" />
      <path
         d="m 367.04822,134.64169 c 2.11047,0.28899 3.74252,1.56345 5.5759,2.56737 2.3598,1.5502 4.7915,2.96239 7.19851,4.42052 2.20252,1.16888 4.00339,2.79054 5.7323,4.55433 1.24668,1.55739 2.43,2.97191 3.88309,4.26954 0.97696,0.83248 1.82342,1.83467 2.66897,2.77565 -0.26693,0.47021 -0.53384,0.94043 -0.80081,1.41066 -0.56744,0.99961 -0.17776,0.54939 -1.17169,1.12678 l 0,0 c -0.46136,0.26804 -0.92276,0.53606 -1.38412,0.80408 -0.95997,-0.92388 -1.95807,-1.86148 -2.84076,-2.87602 -1.09799,-1.61672 -2.27634,-3.07061 -3.60743,-4.52938 -1.50268,-1.46199 -2.98751,-2.9716 -4.69869,-4.21779 -2.18668,-1.62381 -4.35849,-3.22608 -6.93555,-4.21518 -1.59537,-0.86805 -3.20831,-1.60421 -4.81683,-2.36387 -2.50275,-1.18193 -1.54508,-4.10217 1.19711,-3.72669 z"
         id="path2833"
         inkscape:connector-curvature="0"
         style="fill:#6b026b;fill-rule:nonzero;stroke-width:1px" />
      <path
         d="m 467.67035,131.27612 c 1.84195,-1.03772 3.33804,-2.56714 4.88312,-3.98153 2.86276,-2.25347 5.16678,-5.07941 7.62164,-7.74947 1.63501,-2.11488 3.45551,-4.06975 5.31918,-5.97958 2.09342,-2.00396 4.13715,-2.0145 6.82318,-1.82691 3.20545,1.25391 5.43509,4.05355 7.7909,6.43755 2.85388,3.21573 5.29074,6.76841 7.85592,10.21594 1.83503,2.65851 3.67487,5.25842 5.09229,8.15991 0.51086,1.23174 0.15167,2.52231 -0.0303,3.79866 -0.14252,1.00006 -0.50971,1.07228 -1.33957,0.49635 l 0,0 c -0.93314,-0.64758 -1.95551,-1.28826 -2.60282,-2.2384 -1.55572,-2.64773 -2.75927,-5.48022 -4.38382,-8.09801 -2.06973,-3.54119 -4.24539,-6.9662 -7.1488,-9.90609 -1.84821,-1.84384 -3.53775,-3.70101 -6.20419,-4.47489 -1.15064,0.0716 -2.07743,-0.48636 -3.0965,0.65078 -1.97421,1.58821 -3.93277,3.19035 -5.79041,4.91967 -2.53326,2.57656 -5.19131,5.05059 -7.16857,8.10102 -1.26847,1.69726 -2.62406,3.37345 -3.58378,5.27801 -1.76489,3.50247 -7.45455,-1.87793 -4.0375,-3.80301 z"
         id="path2841"
         inkscape:connector-curvature="0"
         style="fill:#6b026b;fill-rule:nonzero;stroke-width:1px" />
      <path
         d="m 283.04611,168.39622 c 0.27463,-2.07765 0.50348,-4.18238 0.85068,-6.25427 0.47592,-2.95391 0.86529,-5.90902 1.10177,-8.89026 0.15818,-2.49962 1.12482,-4.60849 2.40595,-6.70398 2.43347,-2.55964 4.74591,-2.31564 7.85678,-1.9071 3.33823,0.97688 6.26581,2.47829 9.17059,4.33965 3.03348,2.48585 5.9549,5.02526 8.77958,7.74603 2.12783,1.74081 3.61428,3.9108 5.02957,6.21786 0.52817,0.86106 -0.33243,1.58059 -1.09476,0.9178 l 0,0 c -1.98517,-1.72596 -3.84103,-3.52433 -5.4426,-5.62799 -2.64117,-2.68325 -5.19595,-5.5462 -8.42581,-7.5393 -2.56936,-1.62036 -4.96371,-3.53788 -8.15405,-3.09363 -1.42136,0.5108 -2.90085,0.67631 -3.96683,1.84335 -0.75738,1.46275 -1.85263,2.76608 -2.01205,4.58891 -0.77176,2.79355 -1.26102,5.62575 -1.50385,8.528 -0.15994,2.1568 -0.4703,4.29998 -0.77795,6.42498 -0.39133,2.70289 -4.1749,2.11751 -3.81702,-0.59004 z"
         id="path2845"
         inkscape:connector-curvature="0"
         style="fill:#6b026b;fill-rule:nonzero;stroke-width:1px" />
      <path
         d="m 398.92187,250.37176 c 1.11692,1.86115 1.30243,3.97544 1.52192,6.10285 0.62304,3.90097 0.90487,7.19699 -0.90122,10.79165 0.0869,0.7168 0.17386,1.4336 0.26081,2.1504 0.12161,1.00283 -1.29657,1.17483 -1.41819,0.17202 l 0,0 c -0.0867,-0.71499 -0.17343,-1.42996 -0.26013,-2.14492 -2.55197,-2.97168 -3.09277,-6.16288 -3.67529,-9.95822 -0.41556,-2.18357 -0.92795,-4.34379 -0.13159,-6.47608 1.14984,-3.07867 2.91256,-3.45557 4.60369,-0.63769 z"
         id="path2853"
         inkscape:connector-curvature="0"
         style="fill:#6b026b;fill-rule:nonzero;stroke-width:1px" />
      <path
         d="m 413.09494,246.84174 c 0.13327,2.65615 -0.23157,5.79931 -0.23038,8.65625 0.18225,3.49957 -0.68326,6.78271 -0.32986,10.24517 0.10257,1.00492 -1.29584,1.16263 -1.41959,0.1601 l 0,0 c -0.43155,-3.49668 -1.96213,-6.62445 -2.19925,-10.18704 -0.30172,-2.75531 -0.8432,-5.75244 -1.23309,-8.29142 -0.58423,-3.8045 5.21927,-4.42736 5.41217,-0.58306 z"
         id="path2855"
         inkscape:connector-curvature="0"
         style="fill:#6b026b;fill-rule:nonzero;stroke-width:1px" />
      <path
         d="m 428.37369,233.58691 c 0.24466,2.85877 -0.36008,5.61332 -0.82178,8.42163 -0.16391,5.43326 -2.44443,10.20826 -3.96777,15.29883 -0.28961,0.96775 -1.22174,0.93015 -1.42737,-0.0589 l 0,0 c -1.08127,-5.20065 -2.71536,-10.17276 -2.2522,-15.58078 -0.1972,-2.44049 -0.57092,-4.88028 -0.75113,-7.31012 -0.48391,-6.5245 8.66242,-7.2893 9.22025,-0.77069 z"
         id="path2857"
         inkscape:connector-curvature="0"
         style="fill:#6b026b;fill-rule:nonzero;stroke-width:1px" />
      <path
         d="m 438.48999,246.91629 c -0.38834,2.40936 -0.94913,4.84091 -1.29846,7.29166 -0.33725,2.86734 -1.30084,5.52215 -1.81427,8.34664 -0.18067,0.99387 -1.41547,0.888 -1.42334,-0.12213 l 0,0 c -0.0227,-2.91296 -0.48288,-5.72995 -0.0727,-8.64654 0.25269,-2.38886 0.37308,-4.77396 0.39106,-7.15662 0.0225,-2.98919 4.69336,-2.66421 4.21771,0.28699 z"
         id="path2859"
         inkscape:connector-curvature="0"
         style="fill:#6b026b;fill-rule:nonzero;stroke-width:1px" />
      <path
         d="m 452.9816,240.65979 c -0.6648,3.43375 -2.02838,6.95865 -3.01831,10.39435 -1.41071,4.60074 -3.55249,8.66479 -4.34885,13.44381 -0.16604,0.99643 -1.57519,0.7616 -1.40915,-0.2348 l 0,0 c 0.78781,-4.72766 0.22202,-9.26663 0.3515,-14.03064 0.0511,-3.43039 -0.311,-6.89361 -0.59768,-10.216 -0.54987,-6.37238 10.23822,-5.63617 9.02249,0.64328 z"
         id="path2861"
         inkscape:connector-curvature="0"
         style="fill:#6b026b;fill-rule:nonzero;stroke-width:1px" />
      <path
         d="m 475.85715,418.36639 c 1.84256,2.42133 3.97479,4.64957 6.0271,6.91422 5.10116,3.37427 10.20434,7.23273 14.52432,11.64398 5.17517,5.45691 10.28149,10.94464 15.44858,16.43121 4.15457,4.48346 9.51297,7.62378 14.47635,11.15516 5.01306,2.90545 10.35156,4.60674 15.87841,6.18115 7.54651,1.72094 15.34302,1.8656 23.05262,1.88775 11.04632,-0.31872 22.0487,-1.33813 32.92987,-3.25366 12.64898,-2.11566 24.8501,-6.1015 36.83166,-10.58099 9.96851,-3.86951 19.66785,-8.39978 29.2049,-13.22809 5.09881,-2.79395 10.29388,-5.41516 15.40137,-8.17963 2.95507,-1.62256 5.80664,-2.74304 9.08343,-3.1792 2.02655,1.02143 4.20422,1.60401 6.24286,2.40137 1.33044,0.52039 1.22198,0.39508 0.93011,1.79352 l 0,0 c -0.45141,2.16266 -1.05542,4.36719 -1.5534,6.58185 -2.81488,2.61487 -5.74463,4.28454 -9.60394,5.1936 -5.55829,1.5459 -11.03925,3.36664 -16.5893,4.95477 -10.30206,3.27484 -20.43963,7.01832 -30.60803,10.68091 -12.45703,4.25147 -25.00208,8.24219 -37.81592,11.28821 -11.22986,2.44489 -22.50317,4.82709 -33.99768,5.63525 -8.7962,0.79084 -17.65375,1.36066 -26.41144,-0.19763 -6.97601,-1.50268 -13.92322,-4.06213 -19.55621,-8.544 -5.63733,-4.21326 -10.66571,-8.61487 -15.01688,-14.21058 -4.85189,-5.68756 -9.39373,-11.61096 -14.2435,-17.27349 -4.04202,-4.52784 -7.67773,-9.45136 -11.54614,-14.06336 -2.43561,-2.06201 -4.85321,-4.1727 -7.28748,-6.20575 -3.08291,-2.57483 1.7659,-7.02304 4.19834,-3.82657 z"
         id="path2872"
         inkscape:connector-curvature="0"
         style="fill:#6b026b;fill-rule:nonzero;stroke-width:1px" />
      <path
         d="m 554.61652,375.05038 c 5.59668,0.67701 11.1571,-0.0683 16.6867,-0.96273 13.58832,-1.64969 26.55841,-6.17435 39.40869,-10.67115 14.3866,-4.96087 28.45966,-10.73477 42.28644,-17.07687 9.26251,-4.77566 17.88812,-10.60904 26.42829,-16.54477 5.44342,-3.80087 10.91583,-7.53512 16.16626,-11.59085 3.84918,-2.90955 7.25964,-6.27756 10.52447,-9.79797 1.85382,-1.88391 3.27075,-3.95673 4.61084,-6.19681 0.1485,-0.53842 0.0246,-1.11673 0.0369,-1.67511 0.71228,0.11694 -3.76184,-1.39139 -4.50879,-1.61136 -7.74787,-1.36801 -15.69788,-1.06815 -23.52332,-0.58185 -10.77478,0.48035 -21.46295,2.11356 -32.13293,3.61325 -10.33905,1.67258 -20.69019,3.27594 -31.01038,5.06241 -1.40759,0.24365 -1.75219,-1.7471 -0.34454,-1.99072 l 0,0 c 10.34131,-1.78983 20.71344,-3.39719 31.07373,-5.07233 10.71814,-1.50644 21.45953,-2.77774 32.19836,-4.09677 8.14386,-0.90793 16.21155,-2.2793 24.36121,-3.09036 4.7348,0.19577 9.20062,-0.0825 12.12506,4.22207 0.60516,3.16712 0.927,5.6561 -0.862,8.56095 -1.63367,3.15371 -3.1756,6.46161 -5.80151,8.93197 -3.88984,3.49509 -7.89032,6.94284 -12.2735,9.86933 -5.73548,3.72461 -11.3302,7.67877 -17.48981,10.70077 -9.37695,4.80387 -19.01019,9.07746 -28.73615,13.12451 -13.88421,6.36765 -28.01525,12.16608 -42.46136,17.14743 -12.98206,4.54282 -25.96082,9.09558 -38.78735,14.06589 -5.84046,1.90122 -11.51239,4.20828 -17.32435,6.13962 -7.04492,2.34106 -8.02099,-11.37003 -0.651,-10.47855 z"
         id="path2880"
         inkscape:connector-curvature="0"
         style="fill:#6b026b;fill-rule:nonzero;stroke-width:1px" />
    </g>
  </g>
  <text
     xml:space="preserve"
     style="font-style:normal;font-weight:normal;font-size:527.08099365px;line-height:125%;font-family:sans-serif;letter-spacing:0px;word-spacing:0px;fill:#6b026b;fill-opacity:1;stroke:none;stroke-width:1px;stroke-linecap:butt;stroke-linejoin:miter;stroke-opacity:1"
     x="633.30719"
     y="284.39417"
     id="text3392"
     sodipodi:linespacing="125%"
     transform="scale(0.91268717,1.0956657)"><tspan
       sodipodi:role="line"
       x="633.30719"
       y="284.39417"
       id="tspan3394"><tspan
         x="633.30719"
         y="284.39417"
         style="font-style:normal;font-variant:normal;font-weight:normal;font-stretch:normal;font-size:299.70336914px;font-family:'Matura MT Script Capitals';-inkscape-font-specification:'Matura MT Script Capitals'"
         id="tspan3396">DT</tspan></tspan></text>
</svg>
