<?xml version="1.0" encoding="utf-8"?>
<!-- Generator: Adobe Illustrator 18.0.0, SVG Export Plug-In . SVG Version: 6.00 Build 0)  -->
<!DOCTYPE svg PUBLIC "-//W3C//DTD SVG 1.1//EN" "http://www.w3.org/Graphics/SVG/1.1/DTD/svg11.dtd">
<svg version="1.1" id="Layer_2" xmlns="http://www.w3.org/2000/svg" xmlns:xlink="http://www.w3.org/1999/xlink" x="0px" y="0px"
	 viewBox="0 0 386.9 383" enable-background="new 0 0 386.9 383" xml:space="preserve">
<g>
	<path fill="#0272C6" d="M386.9,325.4c0,31.7-25.8,57.5-57.5,57.5H57.5C25.8,383,0,357.2,0,325.4V57.5C0,25.8,25.8,0,57.5,0h271.8
		c31.7,0,57.5,25.8,57.5,57.5V325.4z"/>
	<path fill="#004379" d="M297.6,134.9l23.8-17.9l-25.8,4c0-2-2-4-2-4l0,0l21.8-25.8l-33.7,7.9l0,0c-9.9-11.9-25.8-19.8-41.7-19.8
		c-33.7,0-57.5,25.8-57.5,57.5c0,4,0,7.9,2,11.9l0,0c-43.7,7.9-101.2-35.7-113.1-49.6c-17.9,35.7,17.9,67.5,17.9,67.5s0,6-21.8-2
		c-7.9,35.7,41.7,53.6,41.7,53.6s0,6-25.8,0c9.9,25.8,37.7,47.6,47.6,35.7c-9.9,21.8-65.5,31.7-65.5,31.7
		c212.3,77.4,230.2-127,230.2-127l0,0c2-6,4-13.9,4-21.8C297.6,136.9,297.6,136.9,297.6,134.9z"/>
</g>
</svg>
